<svg class="main-svg" xmlns="http://www.w3.org/2000/svg" xmlns:xlink="http://www.w3.org/1999/xlink" width="960" height="634" style=""><rect x="0" y="0" width="960" height="634" style="fill: rgb(255, 255, 255); fill-opacity: 1;"/><defs id="defs-3728ea"><g class="clips"><clipPath id="clip3728eaxyplot" class="plotclip"><rect width="666" height="524"/></clipPath><clipPath class="axesclip" id="clip3728eax"><rect x="50" y="0" width="666" height="634"/></clipPath><clipPath class="axesclip" id="clip3728eay"><rect x="0" y="60" width="960" height="524"/></clipPath><clipPath class="axesclip" id="clip3728eaxy"><rect x="50" y="60" width="666" height="524"/></clipPath></g><g class="gradients"/><g class="patterns"/></defs><g class="bglayer"><rect class="bg" x="50" y="60" width="666" height="524" style="fill: rgb(229, 236, 246); fill-opacity: 1; stroke-width: 0;"/></g><g class="layer-below"><g class="imagelayer"/><g class="shapelayer"/></g><g class="cartesianlayer"><g class="subplot xy"><g class="layer-subplot"><g class="shapelayer"/><g class="imagelayer"/></g><g class="gridlayer"><g class="x"><path class="xgrid crisp" transform="translate(122.02,0)" d="M0,60v524" style="stroke: rgb(255, 255, 255); stroke-opacity: 1; stroke-width: 1px;"/><path class="xgrid crisp" transform="translate(196.27,0)" d="M0,60v524" style="stroke: rgb(255, 255, 255); stroke-opacity: 1; stroke-width: 1px;"/><path class="xgrid crisp" transform="translate(270.52,0)" d="M0,60v524" style="stroke: rgb(255, 255, 255); stroke-opacity: 1; stroke-width: 1px;"/><path class="xgrid crisp" transform="translate(344.76,0)" d="M0,60v524" style="stroke: rgb(255, 255, 255); stroke-opacity: 1; stroke-width: 1px;"/><path class="xgrid crisp" transform="translate(419.01,0)" d="M0,60v524" style="stroke: rgb(255, 255, 255); stroke-opacity: 1; stroke-width: 1px;"/><path class="xgrid crisp" transform="translate(493.26,0)" d="M0,60v524" style="stroke: rgb(255, 255, 255); stroke-opacity: 1; stroke-width: 1px;"/><path class="xgrid crisp" transform="translate(567.51,0)" d="M0,60v524" style="stroke: rgb(255, 255, 255); stroke-opacity: 1; stroke-width: 1px;"/><path class="xgrid crisp" transform="translate(641.75,0)" d="M0,60v524" style="stroke: rgb(255, 255, 255); stroke-opacity: 1; stroke-width: 1px;"/></g><g class="y"><path class="ygrid crisp" transform="translate(0,565.6700000000001)" d="M50,0h666" style="stroke: rgb(255, 255, 255); stroke-opacity: 1; stroke-width: 1px;"/><path class="ygrid crisp" transform="translate(0,509.06)" d="M50,0h666" style="stroke: rgb(255, 255, 255); stroke-opacity: 1; stroke-width: 1px;"/><path class="ygrid crisp" transform="translate(0,452.45)" d="M50,0h666" style="stroke: rgb(255, 255, 255); stroke-opacity: 1; stroke-width: 1px;"/><path class="ygrid crisp" transform="translate(0,395.84)" d="M50,0h666" style="stroke: rgb(255, 255, 255); stroke-opacity: 1; stroke-width: 1px;"/><path class="ygrid crisp" transform="translate(0,339.23)" d="M50,0h666" style="stroke: rgb(255, 255, 255); stroke-opacity: 1; stroke-width: 1px;"/><path class="ygrid crisp" transform="translate(0,282.62)" d="M50,0h666" style="stroke: rgb(255, 255, 255); stroke-opacity: 1; stroke-width: 1px;"/><path class="ygrid crisp" transform="translate(0,226.01)" d="M50,0h666" style="stroke: rgb(255, 255, 255); stroke-opacity: 1; stroke-width: 1px;"/><path class="ygrid crisp" transform="translate(0,169.4)" d="M50,0h666" style="stroke: rgb(255, 255, 255); stroke-opacity: 1; stroke-width: 1px;"/><path class="ygrid crisp" transform="translate(0,112.78999999999999)" d="M50,0h666" style="stroke: rgb(255, 255, 255); stroke-opacity: 1; stroke-width: 1px;"/></g></g><g class="zerolinelayer"/><path class="xlines-below"/><path class="ylines-below"/><g class="overlines-below"/><g class="xaxislayer-below"/><g class="yaxislayer-below"/><g class="overaxes-below"/><g class="plot" transform="translate(50,60)" clip-path="url(#clip3728eaxyplot)"><g class="scatterlayer mlayer"><g class="trace scatter tracec1cf67" style="stroke-miterlimit: 2; opacity: 1;"><g class="fills"/><g class="errorbars"/><g class="lines"><path class="js-line" d="M0,4566.63L4.45,3396.14L6.68,922.67L8.91,-2464.1L11.14,-1494.95L13.36,1839.59L15.59,3189.07L17.82,3461.43L20.05,2375.55L22.27,613.1L24.5,143.84L26.73,247.3L28.96,474.48L31.18,1224.36L33.41,1542.58L35.64,915.18L37.87,-157.34L40.09,-431.59L42.32,202.64L44.55,522.07L46.78,528.07L49,184.21L51.23,-94.77L53.46,7.59L55.69,292.84L57.91,361.43L62.37,55.85L64.6,54.18L69.05,257.79L71.28,221.08L73.51,133.83L75.73,98.83L77.96,136.2L80.19,186.47L82.41,196.05L84.64,168.5L86.87,140.34L89.1,135.97L93.55,169.79L95.78,172.74L100.23,141.23L102.46,140.75L106.92,169.52L109.14,162L111.37,145.22L113.6,141.52L118.05,162.73L120.28,156.84L122.51,147.15L124.74,148.36L126.96,156.59L129.19,157.66L131.42,150.42L133.65,147.21L138.1,156.61L140.33,152.05L142.56,146.86L144.78,150.2L147.01,156.59L149.24,154.97L151.46,147.39L153.69,145.92L155.92,152.8L158.15,156.49L162.6,144.72L164.83,148.27L167.06,155.41L169.28,154.34L171.51,146.81L173.74,145.01L175.97,151.56L178.19,155.36L182.65,144.23L184.88,147.5L187.1,154.26L189.33,153.29L191.56,146.23L193.79,144.63L196.01,150.92L198.24,154.46L202.7,144.08L204.92,147.21L207.15,153.49L209.38,152.49L211.61,145.92L213.83,144.57L216.06,150.52L218.29,153.79L222.74,144.12L224.97,147.14L227.2,152.95L229.42,151.9L231.65,145.8L233.88,144.68L236.11,150.29L238.33,153.24L242.79,144.25L245.02,147.18L247.24,152.55L249.47,151.44L251.7,145.74L253.93,144.83L256.15,150.12L258.38,152.79L262.84,144.4L265.06,147.23L267.29,152.19L269.52,151.05L271.75,145.73L273.97,145L276.2,149.97L278.43,152.37L282.88,144.55L285.11,147.29L287.34,151.89L289.57,150.7L291.79,145.73L294.02,145.15L296.25,149.85L298.47,152L302.93,144.68L305.16,147.34L307.38,151.6L309.61,150.38L311.84,145.72L314.07,145.28L316.29,149.72L318.52,151.65L322.98,144.79L325.2,147.36L327.43,151.32L329.66,150.09L331.89,145.72L334.11,145.39L336.34,149.59L338.57,151.32L343.02,144.9L345.25,147.37L347.48,151.05L349.71,149.81L351.93,145.73L354.16,145.49L356.39,149.45L358.62,151.01L363.07,144.99L365.3,147.36L367.53,150.79L369.75,149.56L371.98,145.73L374.21,145.57L376.43,149.3L378.66,150.7L383.12,145.07L385.34,147.35L387.57,150.53L389.8,149.31L392.03,145.74L394.25,145.64L396.48,149.15L398.71,150.41L403.16,145.15L405.39,147.32L407.62,150.27L409.85,149.08L412.07,145.74L414.3,145.7L416.53,149L418.76,150.14L423.21,145.21L425.44,147.29L427.67,150.03L429.89,148.87L432.12,145.74L434.35,145.76L436.58,148.85L438.8,149.87L443.26,145.28L445.48,147.25L447.71,149.79L449.94,148.66L452.17,145.75L454.39,145.8L456.62,148.71L458.85,149.62L463.3,145.34L465.53,147.21L467.76,149.56L469.99,148.47L472.21,145.76L474.44,145.85L476.67,148.56L478.9,149.38L483.35,145.39L485.58,147.17L487.81,149.34L490.03,148.29L492.26,145.76L494.49,145.88L496.72,148.42L498.94,149.15L503.4,145.44L505.63,147.12L507.85,149.13L510.08,148.12L512.31,145.77L514.54,145.92L516.76,148.28L518.99,148.93L523.44,145.49L525.67,147.08L527.9,148.94L530.13,147.96L532.35,145.77L534.58,145.95L536.81,148.16L539.04,148.73L543.49,145.53L545.72,147.04L547.95,148.75L550.17,147.81L552.4,145.77L554.63,145.98L556.86,148.04L559.08,148.54L563.54,145.56L565.77,147L567.99,148.58L570.22,147.67L572.45,145.77L574.68,146L576.9,147.93L579.13,148.37L583.59,145.6L585.81,146.97L588.04,148.42L590.27,147.53L592.49,145.77L594.72,146.02L596.95,147.83L599.18,148.2L603.63,145.63L605.86,146.93L608.09,148.27L610.31,147.41L612.54,145.78L614.77,146.04L617,147.73L619.22,148.05L623.68,145.66L625.91,146.89L628.13,148.12L630.36,147.3L632.59,145.78L634.82,146.05L637.04,147.63L639.27,147.9L643.73,145.69L645.95,146.85L648.18,147.99L650.41,147.19L652.64,145.79L654.86,146.06L657.09,147.54L659.32,147.77L663.77,145.71L666,146.82" style="vector-effect: non-scaling-stroke; fill: none; stroke: rgb(99, 110, 250); stroke-opacity: 1; stroke-width: 2px; opacity: 1;"/></g><g class="points"/><g class="text"/></g><g class="trace scatter tracee81ec8" style="stroke-miterlimit: 2; opacity: 1;"><g class="fills"/><g class="errorbars"/><g class="lines"><path class="js-line" d="M0,4740.34L4.45,4258.54L6.68,2955.45L11.14,-5047.17L13.36,-3473.6L15.59,2094.22L17.82,3581.14L22.27,663.99L24.5,-189.04L26.73,-61.37L28.96,799.23L31.18,1276.23L33.41,937.41L35.64,173.36L37.87,-216.96L40.09,235.92L42.32,847.23L44.55,807.99L46.78,330.62L49,105.93L51.23,344.82L53.46,566.01L55.69,458.66L57.91,288.71L60.14,349.85L62.37,491.52L64.6,435.89L66.82,272.78L69.05,289.34L71.28,461.56L73.51,491.11L75.73,320.98L77.96,225.1L82.41,502.41L84.64,418.62L86.87,248.39L89.1,262.3L91.32,425.66L93.55,463.96L95.78,323.72L98.01,237.93L102.46,450.93L104.69,387.94L106.92,261.63L109.14,278.78L111.37,401.98L113.6,421.12L115.83,308.53L118.05,252.15L122.51,423.06L124.74,361.59L126.96,261.23L129.19,285.81L131.42,389.19L133.65,397.64L135.87,300.28L138.1,257.99L142.56,402.24L144.78,347.12L147.01,264.68L149.24,289.11L151.46,375.33L153.69,378.88L155.92,296.58L158.15,264.48L162.6,384.76L164.83,335.88L167.06,268.13L169.28,291.82L171.51,364.21L173.74,364.37L175.97,294.08L178.19,269.31L182.65,371.12L184.88,327.85L187.1,271.16L189.33,293.22L191.56,354.71L193.79,353.21L196.01,292.87L198.24,273.13L202.7,359.94L204.92,321.93L207.15,274.01L209.38,294.02L211.61,346.57L213.83,344.3L216.06,292.31L218.29,276.22L222.74,350.72L224.97,317.43L227.2,276.52L229.42,294.4L231.65,339.63L233.88,337.13L236.11,292.14L238.33,278.69L240.56,317.41L242.79,343.04L247.24,278.72L249.47,294.5L251.7,333.65L253.93,331.27L256.15,292.21L258.38,280.72L260.61,314.41L262.84,336.58L267.29,280.66L269.52,294.45L271.75,328.5L273.97,326.41L276.2,292.4L278.43,282.39L282.88,331.1L285.11,309.06L287.34,282.36L289.57,294.3L291.79,324.05L294.02,322.34L296.25,292.66L298.47,283.79L302.93,326.42L305.16,307.28L307.38,283.83L309.61,294.12L311.84,320.19L314.07,318.9L316.29,292.94L318.52,284.97L322.98,322.4L325.2,305.8L327.43,285.13L329.66,293.92L331.89,316.83L334.11,315.96L336.34,293.22L338.57,285.98L343.02,318.93L345.25,304.55L347.48,286.26L349.71,293.72L351.93,313.92L354.16,313.43L356.39,293.49L358.62,286.86L363.07,315.92L365.3,303.49L367.53,287.25L369.75,293.54L371.98,311.37L374.21,311.24L376.43,293.73L378.66,287.62L383.12,313.29L385.34,302.57L387.57,288.12L389.8,293.39L392.03,309.15L394.25,309.32L396.48,293.95L398.71,288.28L403.16,311L405.39,301.77L407.62,288.88L409.85,293.26L412.07,307.21L414.3,307.65L416.53,294.14L418.76,288.87L423.21,308.99L425.44,301.06L427.67,289.55L429.89,293.15L432.12,305.51L434.35,306.17L436.58,294.3L438.8,289.4L443.26,307.22L445.48,300.43L447.71,290.14L449.94,293.07L452.17,304.02L454.39,304.87L456.62,294.43L458.85,289.87L463.3,305.66L465.53,299.86L467.76,290.66L469.99,293.01L472.21,302.71L474.44,303.7L476.67,294.54L478.9,290.29L483.35,304.28L485.58,299.34L487.81,291.11L490.03,292.98L492.26,301.57L494.49,302.67L496.72,294.62L498.94,290.67L503.4,303.07L505.63,298.87L507.85,291.5L510.08,292.96L512.31,300.58L514.54,301.74L516.76,294.68L518.99,291.01L523.44,302L525.67,298.44L527.9,291.85L530.13,292.96L532.35,299.71L534.58,300.92L536.81,294.72L539.04,291.31L543.49,301.05L545.72,298.05L547.95,292.15L550.17,292.97L552.4,298.95L554.63,300.19L556.86,294.75L559.08,291.59L563.54,300.22L565.77,297.7L567.99,292.41L570.22,292.98L572.45,298.28L574.68,299.53L576.9,294.76L579.13,291.84L583.59,299.48L585.81,297.37L588.04,292.64L590.27,293.01L592.49,297.7L594.72,298.94L599.18,292.06L601.4,295.15L603.63,298.82L605.86,297.07L608.09,292.84L610.31,293.04L612.54,297.2L614.77,298.41L619.22,292.26L621.45,294.92L623.68,298.24L625.91,296.79L628.13,293.02L630.36,293.08L632.59,296.75L634.82,297.94L639.27,292.44L641.5,294.72L643.73,297.73L645.95,296.54L648.18,293.17L650.41,293.12L652.64,296.37L654.86,297.51L659.32,292.61L661.55,294.56L663.77,297.28L666,296.31" style="vector-effect: non-scaling-stroke; fill: none; stroke: rgb(239, 85, 59); stroke-opacity: 1; stroke-width: 2px; opacity: 1;"/></g><g class="points"/><g class="text"/></g><g class="trace scatter trace8cab97" style="stroke-miterlimit: 2; opacity: 1;"><g class="fills"/><g class="errorbars"/><g class="lines"><path class="js-line" d="M0,4785.69L6.68,3795.87L8.91,1579.75L11.14,-2726.29L13.36,-4017.88L15.59,104.51L17.82,2207.86L20.05,1881.86L22.27,544.33L24.5,-352.81L26.73,-189.88L28.96,587.32L31.18,986.94L33.41,748.92L35.64,333.69L37.87,214.56L40.09,495.56L44.55,855.99L46.78,717.44L49,730.01L51.23,1132.66L55.69,1785.62L57.91,1234.79L60.14,632.21L62.37,485.7L64.6,879.49L69.05,1056.58L71.28,626.2L73.51,46.99L75.73,98.04L77.96,659.05L80.19,976.35L82.41,680.7L84.64,230.86L86.87,238.88L89.1,587.55L91.32,663.14L93.55,405.76L95.78,260.29L98.01,450.64L100.23,641.34L102.46,527.32L104.69,297.83L106.92,303.14L109.14,497.76L111.37,543.08L113.6,382.66L115.83,294.08L120.28,538.93L122.51,451.41L124.74,301.91L126.96,329.89L129.19,475.69L131.42,489.95L133.65,353.87L135.87,293.22L140.33,498.36L142.56,422.19L144.78,302.55L147.01,329.59L149.24,447.61L151.46,457.27L153.69,348.31L155.92,302.2L160.37,461.81L162.6,399.29L164.83,308.25L167.06,335.33L169.28,428.49L171.51,430.76L173.74,341.77L175.97,309.13L180.42,437.88L182.65,383.72L184.88,311.62L187.1,337.89L189.33,413.98L191.56,412.55L193.79,338.54L196.01,314.25L200.47,419.79L202.7,373.39L204.92,315.33L207.15,339.39L209.38,401.93L211.61,398.63L213.83,336.93L216.06,318.62L218.29,371.44L220.52,405.75L224.97,318.62L227.2,340.25L229.42,392.15L231.65,387.98L233.88,336.18L236.11,322.07L238.33,366.83L240.56,394.71L245.02,321.52L247.24,340.62L249.47,384.03L251.7,379.68L253.93,336L256.15,324.86L258.38,362.85L260.61,385.82L265.06,324.04L267.29,340.7L269.52,377.25L271.75,373.1L273.97,336.11L276.2,327.1L278.43,359.42L280.66,378.59L285.11,326.21L287.34,340.62L289.57,371.56L291.79,367.81L294.02,336.38L296.25,328.92L298.47,356.45L300.7,372.63L305.16,328.08L307.38,340.44L309.61,366.76L311.84,363.5L314.07,336.71L316.29,330.41L318.52,353.9L320.75,367.68L325.2,329.67L327.43,340.22L329.66,362.71L331.89,359.94L334.11,337.06L336.34,331.64L338.57,351.7L340.8,363.53L345.25,331.03L347.48,340L349.71,359.26L351.93,356.99L354.16,337.41L356.39,332.67L358.62,349.8L360.84,360.04L365.3,332.2L367.53,339.78L369.75,356.33L371.98,354.51L374.21,337.72L376.43,333.53L378.66,348.18L380.89,357.08L385.34,333.2L387.57,339.58L389.8,353.84L392.03,352.42L394.25,338L396.48,334.26L398.71,346.79L400.94,354.57L405.39,334.05L407.62,339.4L409.85,351.71L412.07,350.64L414.3,338.25L416.53,334.89L418.76,345.6L420.98,352.42L425.44,334.78L427.67,339.25L429.89,349.89L432.12,349.12L434.35,338.46L436.58,335.42L438.8,344.59L441.03,350.58L445.48,335.41L447.71,339.13L449.94,348.33L452.17,347.81L454.39,338.64L456.62,335.89L461.08,349.01L463.3,343.16L465.53,335.95L467.76,339.03L469.99,347L472.21,346.68L474.44,338.79L476.67,336.29L481.12,347.65L483.35,342.71L485.58,336.41L487.81,338.96L490.03,345.86L492.26,345.71L494.49,338.92L496.72,336.64L501.17,346.49L503.4,342.3L505.63,336.81L507.85,338.9L510.08,344.88L512.31,344.87L514.54,339.02L516.76,336.95L521.22,345.48L523.44,341.95L525.67,337.15L527.9,338.86L530.13,344.04L532.35,344.13L534.58,339.1L536.81,337.22L541.26,344.61L543.49,341.64L545.72,337.44L547.95,338.83L550.17,343.33L552.4,343.5L554.63,339.16L556.86,337.45L561.31,343.87L563.54,341.36L565.77,337.69L567.99,338.81L570.22,342.71L572.45,342.94L574.68,339.21L576.9,337.66L581.36,343.22L583.59,341.11L585.81,337.91L588.04,338.8L590.27,342.19L592.49,342.46L594.72,339.24L596.95,337.84L601.4,342.66L603.63,340.89L605.86,338.09L608.09,338.8L610.31,341.73L612.54,342.03L614.77,339.27L617,338L621.45,342.18L623.68,340.7L625.91,338.25L628.13,338.81L630.36,341.35L632.59,341.66L634.82,339.29L637.04,338.14L641.5,341.76L643.73,340.52L645.95,338.38L648.18,338.82L650.41,341.02L652.64,341.34L657.09,338.26L659.32,339.86L661.55,341.4L663.77,340.36L666,338.5" style="vector-effect: non-scaling-stroke; fill: none; stroke: rgb(0, 204, 150); stroke-opacity: 1; stroke-width: 2px; opacity: 1;"/></g><g class="points"/><g class="text"/></g><g class="trace scatter trace5c3d48" style="stroke-miterlimit: 2; opacity: 1;"><g class="fills"/><g class="errorbars"/><g class="lines"><path class="js-line" d="M0,4821.25L6.68,4522.95L8.91,3788.41L11.14,1591.49L13.36,-2376.23L15.59,-2120.42L17.82,1982.61L20.05,3167.34L22.27,2623.75L24.5,417.02L26.73,-1406.4L28.96,-261.81L31.18,1468.18L33.41,1513.45L37.87,-197.53L40.09,-89.34L42.32,549.24L44.55,862.92L46.78,716.7L49,423.37L51.23,218.96L53.46,210.8L57.91,664.55L60.14,656.63L64.6,177.19L66.82,305.16L71.28,628.79L73.51,400.84L75.73,241.17L77.96,356.95L80.19,535.86L82.41,512.59L84.64,364.46L86.87,332.38L89.1,436.83L91.32,482.08L95.78,349.95L98.01,414.07L100.23,475.53L102.46,422.19L104.69,342.19L106.92,372.37L109.14,463.19L111.37,462.23L113.6,369.77L115.83,335.23L120.28,471.71L122.51,418.57L124.74,342.18L126.96,364.75L129.19,443.11L131.42,446.82L133.65,373.94L135.87,345.49L140.33,448.61L142.56,406.29L144.78,349.64L147.01,371.18L149.24,431.44L151.46,429.3L153.69,370.08L155.92,351.76L160.37,435.46L162.6,397.58L164.83,352.1L167.06,372.7L169.28,422.5L171.51,418.71L173.74,369.2L175.97,355.52L178.19,397.93L180.42,424.41L184.88,355.45L187.1,373.56L189.33,414.26L191.56,409.94L193.79,369.02L196.01,358.92L198.24,394.43L200.47,415.4L204.92,358.13L207.15,374.07L209.38,407.63L211.61,403.16L213.83,369.05L216.06,361.42L218.29,391.29L220.52,408.21L224.97,360.38L227.2,374.19L229.42,402.04L231.65,397.81L233.88,369.32L236.11,363.39L238.33,388.51L240.56,402.32L245.02,362.29L247.24,374.15L249.47,397.36L251.7,393.53L253.93,369.65L256.15,364.96L258.38,386.11L260.61,397.48L265.06,363.89L267.29,374.02L269.52,393.45L271.75,390.06L273.97,370L276.2,366.21L278.43,384.04L280.66,393.49L285.11,365.24L287.34,373.85L289.57,390.17L291.79,387.23L294.02,370.34L296.25,367.23L298.47,382.27L300.7,390.18L305.16,366.37L307.38,373.67L309.61,387.42L311.84,384.91L314.07,370.66L316.29,368.06L318.52,380.76L320.75,387.42L325.2,367.32L327.43,373.49L329.66,385.1L331.89,382.98L334.11,370.94L336.34,368.75L338.57,379.47L340.8,385.11L345.25,368.12L347.48,373.33L349.71,383.15L351.93,381.38L354.16,371.2L356.39,369.31L358.62,378.38L360.84,383.18L365.3,368.8L367.53,373.18L369.75,381.5L371.98,380.03L374.21,371.42L376.43,369.79L378.66,377.46L380.89,381.55L385.34,369.37L387.57,373.05L389.8,380.12L392.03,378.91L394.25,371.6L396.48,370.19L398.71,376.67L400.94,380.18L405.39,369.85L407.62,372.94L409.85,378.94L412.07,377.96L414.3,371.76L416.53,370.53L418.76,376.01L420.98,379.02L425.44,370.26L427.67,372.84L429.89,377.95L432.12,377.15L434.35,371.9L436.58,370.81L438.8,375.45L441.03,378.04L445.48,370.6L447.71,372.77L449.94,377.12L452.17,376.47L454.39,372.01L456.62,371.05L458.85,374.98L461.08,377.21L465.53,370.89L467.76,372.7L469.99,376.41L472.21,375.89L474.44,372.1L476.67,371.26L478.9,374.59L481.12,376.5L485.58,371.14L487.81,372.65L490.03,375.81L492.26,375.4L494.49,372.18L496.72,371.44L501.17,375.91L503.4,373.73L505.63,371.35L507.85,372.61L510.08,375.3L512.31,374.98L514.54,372.25L516.76,371.59L521.22,375.4L523.44,373.56L525.67,371.53L527.9,372.58L530.13,374.87L532.35,374.63L534.58,372.3L536.81,371.72L541.26,374.97L543.49,373.42L545.72,371.68L547.95,372.55L550.17,374.51L552.4,374.32L554.63,372.34L556.86,371.83L561.31,374.6L563.54,373.3L565.77,371.81L567.99,372.53L570.22,374.2L572.45,374.06L574.68,372.38L576.9,371.92L581.36,374.29L583.59,373.19L585.81,371.91L588.04,372.51L590.27,373.94L592.49,373.84L594.72,372.41L596.95,372L601.4,374.02L603.63,373.1L605.86,372L608.09,372.5L610.31,373.72L612.54,373.65L614.77,372.43L617,372.07L621.45,373.8L623.68,373.02L625.91,372.08L628.13,372.49L630.36,373.53L632.59,373.48L637.04,372.13L639.27,373.01L641.5,373.61L643.73,372.95L645.95,372.15L648.18,372.49L650.41,373.37L652.64,373.34L657.09,372.19L659.32,372.93L661.55,373.44L663.77,372.9L666,372.2" style="vector-effect: non-scaling-stroke; fill: none; stroke: rgb(171, 99, 250); stroke-opacity: 1; stroke-width: 2px; opacity: 1;"/></g><g class="points"/><g class="text"/></g><g class="trace scatter trace4abbc0" style="stroke-miterlimit: 2; opacity: 1;"><g class="fills"/><g class="errorbars"/><g class="lines"><path class="js-line" d="M0,4837.57L8.91,4512.95L11.14,3767.42L15.59,-693.01L17.82,-221.64L20.05,902.95L22.27,1392.8L24.5,2539.42L31.18,1302.82L33.41,886.88L35.64,-167.46L37.87,-500.2L42.32,1985.05L44.55,1478.04L46.78,401.93L49,-41.97L53.46,853.31L55.69,837.9L57.91,530.13L60.14,376.15L64.6,522.57L66.82,505.5L69.05,543.89L71.28,619.54L73.51,566.93L75.73,395.38L77.96,336.86L80.19,499.31L82.41,643.58L84.64,549.14L86.87,350.01L89.1,334.67L93.55,602.41L95.78,478.58L98.01,340.19L100.23,388L102.46,520.5L104.69,519.33L106.92,401.03L109.14,362.2L111.37,455.67L113.6,515.65L118.05,361.73L120.28,400.35L122.51,487.12L124.74,474.45L126.96,384.97L129.19,365.84L131.42,445.01L133.65,488.06L138.1,359.09L140.33,394.44L142.56,467L144.78,456.26L147.01,382.56L149.24,366.45L151.46,430.22L153.69,465.29L158.15,363.66L160.37,392.46L162.6,449.61L164.83,439.84L167.06,381.27L169.28,370.24L171.51,421.91L173.74,448.46L178.19,366.67L180.42,391.84L182.65,437.85L184.88,428.25L187.1,380.35L189.33,372.76L191.56,415.58L193.79,436.33L198.24,369.4L200.47,391.05L202.7,428.48L204.92,419.66L207.15,380.34L209.38,375.06L211.61,410.53L213.83,426.85L218.29,371.91L220.52,390.48L222.74,421.06L224.97,413.05L227.2,380.61L229.42,376.96L231.65,406.5L233.88,419.45L238.33,374.04L240.56,389.93L242.79,415.08L245.02,407.94L247.24,381.06L249.47,378.5L251.7,403.16L253.93,413.56L258.38,375.88L260.61,389.41L262.84,410.2L265.06,403.93L267.29,381.58L269.52,379.76L271.75,400.38L273.97,408.8L278.43,377.43L280.66,388.92L282.88,406.18L285.11,400.74L287.34,382.1L289.57,380.78L291.79,398.06L294.02,404.94L298.47,378.74L300.7,388.48L302.93,402.85L305.16,398.17L307.38,382.59L309.61,381.61L311.84,396.1L314.07,401.77L318.52,379.84L320.75,388.08L322.98,400.09L325.2,396.09L327.43,383.03L329.66,382.29L331.89,394.46L334.11,399.15L338.57,380.77L340.8,387.72L343.02,397.78L345.25,394.39L347.48,383.43L349.71,382.84L351.93,393.07L354.16,396.99L358.62,381.55L360.84,387.41L363.07,395.86L365.3,392.99L367.53,383.77L369.75,383.29L371.98,391.9L374.21,395.19L378.66,382.2L380.89,387.14L383.12,394.24L385.34,391.82L387.57,384.07L389.8,383.67L392.03,390.92L394.25,393.68L398.71,382.75L400.94,386.9L403.16,392.89L405.39,390.86L407.62,384.33L409.85,383.98L412.07,390.09L414.3,392.43L418.76,383.21L420.98,386.7L423.21,391.76L425.44,390.05L427.67,384.55L429.89,384.25L432.12,389.39L434.35,391.37L438.8,383.6L441.03,386.53L443.26,390.8L445.48,389.38L447.71,384.73L449.94,384.46L452.17,388.8L454.39,390.49L458.85,383.92L461.08,386.39L463.3,390L465.53,388.81L467.76,384.89L469.99,384.65L472.21,388.3L474.44,389.74L478.9,384.2L481.12,386.27L483.35,389.32L485.58,388.33L487.81,385.02L490.03,384.8L492.26,387.89L494.49,389.11L498.94,384.43L501.17,386.17L503.4,388.75L505.63,387.93L507.85,385.13L510.08,384.94L512.31,387.54L514.54,388.58L518.99,384.63L521.22,386.09L523.44,388.27L525.67,387.59L527.9,385.22L530.13,385.05L532.35,387.24L534.58,388.14L539.04,384.79L541.26,386.02L543.49,387.87L545.72,387.3L547.95,385.3L550.17,385.14L552.4,386.99L554.63,387.76L559.08,384.93L561.31,385.96L563.54,387.53L565.77,387.06L567.99,385.37L570.22,385.22L574.68,387.44L576.9,386.14L579.13,385.05L581.36,385.91L583.59,387.24L585.81,386.85L588.04,385.42L590.27,385.29L594.72,387.17L596.95,386.08L599.18,385.15L601.4,385.87L603.63,387L605.86,386.68L608.09,385.47L610.31,385.35L614.77,386.94L617,386.03L619.22,385.23L621.45,385.84L623.68,386.79L625.91,386.53L628.13,385.51L630.36,385.4L634.82,386.75L637.04,385.98L639.27,385.3L641.5,385.81L643.73,386.62L645.95,386.4L650.41,385.44L652.64,386.23L654.86,386.59L657.09,385.94L659.32,385.36L661.55,385.79L663.77,386.48L666,386.3" style="vector-effect: non-scaling-stroke; fill: none; stroke: rgb(255, 161, 90); stroke-opacity: 1; stroke-width: 2px; opacity: 1;"/></g><g class="points"/><g class="text"/></g><g class="trace scatter trace2558ef" style="stroke-miterlimit: 2; opacity: 1;"><g class="fills"/><g class="errorbars"/><g class="lines"><path class="js-line" d="M0,1229.77L4.45,-2269.29L6.68,-972.85L8.91,1960.95L11.14,2780.68L17.82,1433.41L22.27,1990.09L24.5,1214.72L26.73,208.03L28.96,221.38L31.18,1233.28L33.41,1662.16L35.64,1174.62L37.87,91.53L40.09,146.17L42.32,1012.79L44.55,1181.8L46.78,550.54L49,129.29L51.23,598.31L53.46,1008.44L55.69,659.59L57.91,140.74L60.14,298.43L64.6,857.85L66.82,376.38L69.05,139.27L71.28,463.66L73.51,744.23L75.73,554.56L77.96,264.55L80.19,346.45L82.41,608.93L84.64,583.89L86.87,332.99L89.1,286.82L93.55,597.82L95.78,406.3L98.01,256.22L100.23,396.27L102.46,578.59L104.69,498.61L106.92,293.61L109.14,296.82L111.37,488.27L113.6,539.75L115.83,375.95L118.05,271.05L122.51,522.13L124.74,448.43L126.96,298.84L129.19,318.48L131.42,463.17L133.65,485.4L135.87,354.22L138.1,288.99L142.56,484.35L144.78,413.19L147.01,300.46L149.24,330.29L151.46,445.57L153.69,451.72L155.92,342.76L158.15,299.31L162.6,456.78L164.83,392.78L167.06,304.94L169.28,336.12L171.51,428.69L173.74,427.4L175.97,337.7L178.19,307.96L182.65,434.92L184.88,378.83L187.1,309.67L189.33,339.72L191.56,414.73L193.79,409.46L196.01,335.09L198.24,314.33L200.47,378.28L202.7,418.08L207.15,313.87L209.38,341.5L211.61,403.05L213.83,396.11L216.06,334.08L218.29,319.12L220.52,373.26L222.74,404.72L227.2,317.59L229.42,342.29L231.65,393.24L233.88,385.89L236.11,333.89L238.33,322.79L240.56,368.68L242.79,394.01L247.24,320.77L249.47,342.5L251.7,385.04L253.93,377.93L256.15,334.12L258.38,325.61L260.61,364.58L262.84,385.33L267.29,323.48L269.52,342.38L271.75,378.16L273.97,371.63L276.2,334.56L278.43,327.82L280.66,360.97L282.88,378.22L287.34,325.78L289.57,342.09L291.79,372.36L294.02,366.57L296.25,335.08L298.47,329.58L300.7,357.82L302.93,372.35L307.38,327.73L309.61,341.72L311.84,367.46L314.07,362.45L316.29,335.62L318.52,331L320.75,355.09L322.98,367.45L327.43,329.39L329.66,341.32L331.89,363.31L334.11,359.05L336.34,336.14L338.57,332.15L340.8,352.73L343.02,363.35L347.48,330.79L349.71,340.94L351.93,359.79L354.16,356.23L356.39,336.62L358.62,333.11L360.84,350.69L363.07,359.9L367.53,331.99L369.75,340.59L371.98,356.79L374.21,353.87L376.43,337.04L378.66,333.91L380.89,348.95L383.12,356.97L387.57,333.02L389.8,340.27L392.03,354.24L394.25,351.87L396.48,337.42L398.71,334.58L400.94,347.46L403.16,354.48L407.62,333.89L409.85,340L412.07,352.06L414.3,350.17L416.53,337.74L418.76,335.15L420.98,346.18L423.21,352.35L427.67,334.64L429.89,339.77L432.12,350.2L434.35,348.72L436.58,338.02L438.8,335.65L441.03,345.09L443.26,350.53L447.71,335.28L449.94,339.57L452.17,348.6L454.39,347.48L456.62,338.26L458.85,336.08L461.08,344.16L463.3,348.97L467.76,335.83L469.99,339.41L472.21,347.24L474.44,346.4L476.67,338.46L478.9,336.45L481.12,343.37L483.35,347.63L487.81,336.3L490.03,339.28L492.26,346.07L494.49,345.47L496.72,338.62L498.94,336.77L501.17,342.7L503.4,346.47L507.85,336.71L510.08,339.18L512.31,345.07L514.54,344.66L516.76,338.76L518.99,337.05L523.44,345.48L525.67,341.67L527.9,337.06L530.13,339.09L532.35,344.21L534.58,343.96L536.81,338.87L539.04,337.3L543.49,344.62L545.72,341.4L547.95,337.36L550.17,339.03L552.4,343.48L554.63,343.35L556.86,338.96L559.08,337.52L563.54,343.87L565.77,341.15L567.99,337.62L570.22,338.99L572.45,342.85L574.68,342.82L576.9,339.04L579.13,337.71L583.59,343.23L585.81,340.93L588.04,337.84L590.27,338.95L592.49,342.31L594.72,342.36L596.95,339.09L599.18,337.88L603.63,342.67L605.86,340.74L608.09,338.03L610.31,338.93L612.54,341.84L614.77,341.95L617,339.14L619.22,338.03L623.68,342.19L625.91,340.56L628.13,338.19L630.36,338.91L632.59,341.44L634.82,341.59L637.04,339.17L639.27,338.16L643.73,341.77L645.95,340.41L648.18,338.33L650.41,338.91L652.64,341.1L654.86,341.28L657.09,339.2L659.32,338.28L663.77,341.41L666,340.27" style="vector-effect: non-scaling-stroke; fill: none; stroke: rgb(25, 211, 243); stroke-opacity: 1; stroke-width: 2px; opacity: 1;"/></g><g class="points"/><g class="text"/></g><g class="trace scatter trace8c578a" style="stroke-miterlimit: 2; opacity: 1;"><g class="fills"/><g class="errorbars"/><g class="lines"><path class="js-line" d="M0,4766.04L6.68,3364.17L8.91,1127.61L11.14,-977.59L13.36,-657.04L15.59,1467.17L17.82,1663.05L22.27,1938.38L26.73,1177.79L28.96,931.84L31.18,602.1L33.41,80.6L37.87,791.86L40.09,868.75L42.32,1165.13L44.55,1057.34L46.78,595.74L49,327.82L51.23,313L55.69,836.73L57.91,520.06L60.14,185.77L62.37,400.77L64.6,817.83L66.82,733.26L69.05,291.85L71.28,138.37L73.51,486.86L75.73,763.84L77.96,578.22L80.19,255.58L82.41,268.43L84.64,529.07L86.87,588.72L89.1,394.62L91.32,294.68L95.78,549.52L98.01,434.91L100.23,292.65L102.46,363.81L104.69,519.53L106.92,491.35L109.14,325.01L111.37,293.14L113.6,444.39L115.83,522.7L120.28,282.23L122.51,351.17L124.74,484.8L126.96,461.56L129.19,327.12L131.42,302.34L133.65,419.81L135.87,477.58L140.33,296.66L142.56,355.7L144.78,454.9L147.01,428.38L149.24,323.88L151.46,313.82L153.69,409.8L155.92,448.4L160.37,302.64L162.6,356.9L164.83,435.66L167.06,408.41L169.28,322.85L171.51,319.32L173.74,399.33L175.97,427.6L180.42,308.58L182.65,355.89L184.88,419.13L187.1,393.82L189.33,323.92L191.56,324L193.79,390.43L196.01,411.24L200.47,313.61L202.7,354.72L204.92,406.04L207.15,382.97L209.38,325.21L211.61,327.3L213.83,382.97L216.06,398.71L220.52,317.65L222.74,353.15L224.97,395.4L227.2,374.88L229.42,326.75L231.65,329.68L233.88,376.53L236.11,388.79L238.33,347.44L240.56,321.02L245.02,386.63L247.24,368.66L249.47,328.29L251.7,331.46L253.93,371.04L256.15,380.82L258.38,345.66L260.61,323.79L265.06,379.38L267.29,363.8L269.52,329.72L271.75,332.78L273.97,366.35L276.2,374.36L278.43,344.42L280.66,326.09L285.11,373.34L287.34,359.93L289.57,331.03L291.79,333.79L294.02,362.34L296.25,369.05L298.47,343.53L300.7,328.01L305.16,368.28L307.38,356.81L309.61,332.19L311.84,334.57L314.07,358.93L316.29,364.66L318.52,342.88L320.75,329.62L325.2,364.02L327.43,354.27L329.66,333.21L331.89,335.19L334.11,356.01L336.34,360.99L338.57,342.39L340.8,330.98L345.25,360.42L347.48,352.16L349.71,334.09L351.93,335.68L354.16,353.52L356.39,357.9L358.62,342.01L360.84,332.12L365.3,357.37L367.53,350.4L369.75,334.86L371.98,336.09L374.21,351.4L376.43,355.29L378.66,341.7L380.89,333.1L385.34,354.77L387.57,348.91L389.8,335.52L392.03,336.44L394.25,349.58L396.48,353.07L398.71,341.45L400.94,333.93L405.39,352.56L407.62,347.65L409.85,336.09L412.07,336.73L414.3,348.03L416.53,351.18L420.98,334.64L423.21,341.9L425.44,350.66L427.67,346.57L429.89,336.57L432.12,336.99L434.35,346.71L436.58,349.56L441.03,335.26L443.26,341.41L445.48,349.04L447.71,345.64L449.94,336.99L452.17,337.21L454.39,345.58L456.62,348.17L461.08,335.78L463.3,341L465.53,347.65L467.76,344.83L469.99,337.34L472.21,337.41L474.44,344.62L476.67,346.97L481.12,336.24L483.35,340.65L485.58,346.46L487.81,344.13L490.03,337.64L492.26,337.59L494.49,343.8L496.72,345.93L501.17,336.63L503.4,340.36L505.63,345.44L507.85,343.53L510.08,337.89L512.31,337.74L514.54,343.09L516.76,345.04L521.22,336.97L523.44,340.12L525.67,344.56L527.9,343L530.13,338.11L532.35,337.89L534.58,342.5L536.81,344.26L541.26,337.26L543.49,339.92L545.72,343.8L547.95,342.53L550.17,338.29L552.4,338.01L554.63,341.99L556.86,343.59L561.31,337.52L563.54,339.75L565.77,343.15L567.99,342.12L570.22,338.44L572.45,338.13L574.68,341.55L576.9,343.01L581.36,337.74L583.59,339.62L585.81,342.59L588.04,341.76L590.27,338.57L592.49,338.23L594.72,341.18L596.95,342.5L601.4,337.93L603.63,339.51L605.86,342.1L608.09,341.45L610.31,338.68L612.54,338.33L614.77,340.87L617,342.06L621.45,338.09L623.68,339.42L625.91,341.69L628.13,341.17L630.36,338.77L632.59,338.41L634.82,340.6L637.04,341.68L641.5,338.23L643.73,339.34L645.95,341.33L648.18,340.93L650.41,338.84L652.64,338.49L657.09,341.34L659.32,339.84L661.55,338.36L663.77,339.28L666,341.02" style="vector-effect: non-scaling-stroke; fill: none; stroke: rgb(255, 102, 146); stroke-opacity: 1; stroke-width: 2px; opacity: 1;"/></g><g class="points"/><g class="text"/></g><g class="trace scatter trace630b43" style="stroke-miterlimit: 2; opacity: 1;"><g class="fills"/><g class="errorbars"/><g class="lines"><path class="js-line" d="M0,4817.34L6.68,4272.87L8.91,2922.72L13.36,-4566.07L15.59,-2308.4L17.82,2521.61L20.05,3293.95L22.27,2033.52L24.5,109.14L26.73,-1167.06L28.96,-614.5L31.18,945.8L33.41,1597.36L35.64,1166.04L37.87,332.6L40.09,-257.54L42.32,-37.78L44.55,793.49L46.78,1183.67L49,762.45L51.23,72.39L53.46,-63.64L55.69,506.73L57.91,914.76L60.14,682.04L62.37,233.43L64.6,169.36L66.82,481.86L69.05,646.02L73.51,336.1L75.73,393.76L77.96,495.86L80.19,449.46L82.41,367.15L84.64,420.76L86.87,515.82L89.1,468.09L91.32,338.63L93.55,343.2L95.78,483.28L98.01,530.16L102.46,307.36L104.69,386.62L106.92,508.21L109.14,477.43L111.37,352.84L113.6,335.33L115.83,442.25L118.05,490.03L122.51,334.55L124.74,389.61L126.96,471.24L129.19,442.37L131.42,354.79L133.65,354.11L135.87,436.95L138.1,461.92L142.56,339.98L144.78,393.17L147.01,456.67L149.24,425.72L151.46,353.42L153.69,357.88L155.92,427.68L158.15,445.35L160.37,384.02L162.6,345.63L167.06,441.24L169.28,414.03L171.51,356.12L173.74,362.22L175.97,418.92L178.19,430.8L180.42,379.95L182.65,350.86L187.1,429.28L189.33,404.93L191.56,357.99L193.79,365.1L196.01,411.93L198.24,420.01L200.47,377.35L202.7,354.65L207.15,419.68L209.38,398.41L211.61,359.95L213.83,366.98L216.06,405.79L218.29,411.49L220.52,375.79L222.74,357.79L227.2,411.79L229.42,393.42L231.65,361.74L233.88,368.33L236.11,400.61L238.33,404.7L240.56,374.76L242.79,360.31L247.24,405.35L249.47,389.58L251.7,363.31L253.93,369.28L256.15,396.24L258.38,399.26L260.61,374.1L262.84,362.34L267.29,400.04L269.52,386.58L271.75,364.69L273.97,369.96L276.2,392.54L278.43,394.84L280.66,373.67L282.88,364L287.34,395.64L289.57,384.2L291.79,365.87L294.02,370.45L296.25,389.42L298.47,391.23L300.7,373.4L302.93,365.37L307.38,391.98L309.61,382.28L311.84,366.89L314.07,370.81L316.29,386.79L318.52,388.26L320.75,373.21L322.98,366.49L327.43,388.93L329.66,380.72L331.89,367.75L334.11,371.09L336.34,384.57L338.57,385.79L340.8,373.09L343.02,367.43L347.48,386.38L349.71,379.45L351.93,368.49L354.16,371.3L356.39,382.69L358.62,383.74L360.84,373.01L363.07,368.21L367.53,384.24L369.75,378.39L371.98,369.11L374.21,371.47L376.43,381.11L378.66,382.02L380.89,372.95L383.12,368.86L387.57,382.44L389.8,377.51L392.03,369.64L394.25,371.61L396.48,379.78L398.71,380.58L400.94,372.91L403.16,369.41L407.62,380.92L409.85,376.77L412.07,370.09L414.3,371.72L416.53,378.65L418.76,379.37L420.98,372.87L423.21,369.87L427.67,379.64L429.89,376.15L432.12,370.47L434.35,371.82L436.58,377.69L438.8,378.35L441.03,372.84L443.26,370.27L447.71,378.55L449.94,375.63L452.17,370.79L454.39,371.9L456.62,376.89L458.85,377.48L461.08,372.82L463.3,370.6L467.76,377.64L469.99,375.18L472.21,371.06L474.44,371.97L476.67,376.21L478.9,376.74L481.12,372.79L483.35,370.88L487.81,376.86L490.03,374.81L492.26,371.29L494.49,372.03L496.72,375.63L498.94,376.12L501.17,372.77L503.4,371.12L507.85,376.2L510.08,374.48L512.31,371.48L514.54,372.08L516.76,375.15L518.99,375.59L521.22,372.75L523.44,371.32L527.9,375.64L530.13,374.21L532.35,371.65L534.58,372.13L536.81,374.73L539.04,375.14L541.26,372.73L543.49,371.49L547.95,375.17L550.17,373.97L552.4,371.78L554.63,372.17L556.86,374.39L559.08,374.75L563.54,371.64L565.77,373.22L567.99,374.77L570.22,373.76L572.45,371.9L574.68,372.21L576.9,374.09L579.13,374.42L583.59,371.77L585.81,373.1L588.04,374.43L590.27,373.59L592.49,372L594.72,372.24L596.95,373.85L599.18,374.14L603.63,371.88L605.86,372.99L608.09,374.14L610.31,373.44L612.54,372.08L614.77,372.27L617,373.64L619.22,373.91L623.68,371.97L625.91,372.91L628.13,373.89L630.36,373.31L632.59,372.15L634.82,372.3L637.04,373.46L639.27,373.7L643.73,372.05L645.95,372.84L648.18,373.68L650.41,373.2L652.64,372.21L654.86,372.32L659.32,373.53L661.55,372.64L663.77,372.11L666,372.78" style="vector-effect: non-scaling-stroke; fill: none; stroke: rgb(182, 232, 128); stroke-opacity: 1; stroke-width: 2px; opacity: 1;"/></g><g class="points"/><g class="text"/></g></g></g><g class="overplot"/><path class="xlines-above crisp" d="M0,0" style="fill: none;"/><path class="ylines-above crisp" d="M0,0" style="fill: none;"/><g class="overlines-above"/><g class="xaxislayer-above"><g class="xtick"><text text-anchor="middle" x="0" y="597" transform="translate(122.02,0)" style="font-family: 'Open Sans', verdana, arial, sans-serif; font-size: 12px; fill: rgb(42, 63, 95); fill-opacity: 1; white-space: pre; opacity: 1;">50</text></g><g class="xtick"><text text-anchor="middle" x="0" y="597" style="font-family: 'Open Sans', verdana, arial, sans-serif; font-size: 12px; fill: rgb(42, 63, 95); fill-opacity: 1; white-space: pre; opacity: 1;" transform="translate(196.27,0)">100</text></g><g class="xtick"><text text-anchor="middle" x="0" y="597" style="font-family: 'Open Sans', verdana, arial, sans-serif; font-size: 12px; fill: rgb(42, 63, 95); fill-opacity: 1; white-space: pre; opacity: 1;" transform="translate(270.52,0)">150</text></g><g class="xtick"><text text-anchor="middle" x="0" y="597" style="font-family: 'Open Sans', verdana, arial, sans-serif; font-size: 12px; fill: rgb(42, 63, 95); fill-opacity: 1; white-space: pre; opacity: 1;" transform="translate(344.76,0)">200</text></g><g class="xtick"><text text-anchor="middle" x="0" y="597" style="font-family: 'Open Sans', verdana, arial, sans-serif; font-size: 12px; fill: rgb(42, 63, 95); fill-opacity: 1; white-space: pre; opacity: 1;" transform="translate(419.01,0)">250</text></g><g class="xtick"><text text-anchor="middle" x="0" y="597" style="font-family: 'Open Sans', verdana, arial, sans-serif; font-size: 12px; fill: rgb(42, 63, 95); fill-opacity: 1; white-space: pre; opacity: 1;" transform="translate(493.26,0)">300</text></g><g class="xtick"><text text-anchor="middle" x="0" y="597" style="font-family: 'Open Sans', verdana, arial, sans-serif; font-size: 12px; fill: rgb(42, 63, 95); fill-opacity: 1; white-space: pre; opacity: 1;" transform="translate(567.51,0)">350</text></g><g class="xtick"><text text-anchor="middle" x="0" y="597" style="font-family: 'Open Sans', verdana, arial, sans-serif; font-size: 12px; fill: rgb(42, 63, 95); fill-opacity: 1; white-space: pre; opacity: 1;" transform="translate(641.75,0)">400</text></g><g class="xtick"><text text-anchor="middle" x="0" y="597" style="font-family: 'Open Sans', verdana, arial, sans-serif; font-size: 12px; fill: rgb(42, 63, 95); fill-opacity: 1; white-space: pre; opacity: 1;" transform="translate(716,0)">450</text></g></g><g class="yaxislayer-above"><g class="ytick"><text text-anchor="end" x="49" y="4.199999999999999" transform="translate(0,565.6700000000001)" style="font-family: 'Open Sans', verdana, arial, sans-serif; font-size: 12px; fill: rgb(42, 63, 95); fill-opacity: 1; white-space: pre; opacity: 1;">3.85</text></g><g class="ytick"><text text-anchor="end" x="49" y="4.199999999999999" style="font-family: 'Open Sans', verdana, arial, sans-serif; font-size: 12px; fill: rgb(42, 63, 95); fill-opacity: 1; white-space: pre; opacity: 1;" transform="translate(0,509.06)">3.9</text></g><g class="ytick"><text text-anchor="end" x="49" y="4.199999999999999" style="font-family: 'Open Sans', verdana, arial, sans-serif; font-size: 12px; fill: rgb(42, 63, 95); fill-opacity: 1; white-space: pre; opacity: 1;" transform="translate(0,452.45)">3.95</text></g><g class="ytick"><text text-anchor="end" x="49" y="4.199999999999999" style="font-family: 'Open Sans', verdana, arial, sans-serif; font-size: 12px; fill: rgb(42, 63, 95); fill-opacity: 1; white-space: pre; opacity: 1;" transform="translate(0,395.84)">4</text></g><g class="ytick"><text text-anchor="end" x="49" y="4.199999999999999" style="font-family: 'Open Sans', verdana, arial, sans-serif; font-size: 12px; fill: rgb(42, 63, 95); fill-opacity: 1; white-space: pre; opacity: 1;" transform="translate(0,339.23)">4.05</text></g><g class="ytick"><text text-anchor="end" x="49" y="4.199999999999999" style="font-family: 'Open Sans', verdana, arial, sans-serif; font-size: 12px; fill: rgb(42, 63, 95); fill-opacity: 1; white-space: pre; opacity: 1;" transform="translate(0,282.62)">4.1</text></g><g class="ytick"><text text-anchor="end" x="49" y="4.199999999999999" style="font-family: 'Open Sans', verdana, arial, sans-serif; font-size: 12px; fill: rgb(42, 63, 95); fill-opacity: 1; white-space: pre; opacity: 1;" transform="translate(0,226.01)">4.15</text></g><g class="ytick"><text text-anchor="end" x="49" y="4.199999999999999" style="font-family: 'Open Sans', verdana, arial, sans-serif; font-size: 12px; fill: rgb(42, 63, 95); fill-opacity: 1; white-space: pre; opacity: 1;" transform="translate(0,169.4)">4.2</text></g><g class="ytick"><text text-anchor="end" x="49" y="4.199999999999999" style="font-family: 'Open Sans', verdana, arial, sans-serif; font-size: 12px; fill: rgb(42, 63, 95); fill-opacity: 1; white-space: pre; opacity: 1;" transform="translate(0,112.78999999999999)">4.25</text></g></g><g class="overaxes-above"/></g></g><g class="polarlayer"/><g class="ternarylayer"/><g class="geolayer"/><g class="funnelarealayer"/><g class="pielayer"/><g class="iciclelayer"/><g class="treemaplayer"/><g class="sunburstlayer"/><g class="glimages"/><defs id="topdefs-3728ea"><g class="clips"/><clipPath id="legend3728ea"><rect width="219" height="162" x="0" y="0"/></clipPath></defs><g class="layer-above"><g class="imagelayer"/><g class="shapelayer"/></g><g class="infolayer"><g class="legend" pointer-events="all" transform="translate(729.32,60)"><rect class="bg" shape-rendering="crispEdges" width="219" height="162" x="0" y="0" style="stroke: rgb(68, 68, 68); stroke-opacity: 1; fill: rgb(255, 255, 255); fill-opacity: 1; stroke-width: 0px;"/><g class="scrollbox" transform="" clip-path="url(#legend3728ea)"><g class="groups"><g class="traces" transform="translate(0,14.5)" style="opacity: 1;"><text class="legendtext" text-anchor="start" x="40" y="4.680000000000001" style="font-family: 'Open Sans', verdana, arial, sans-serif; font-size: 12px; fill: rgb(42, 63, 95); fill-opacity: 1; white-space: pre;">48 x 32</text><g class="layers" style="opacity: 1;"><g class="legendfill"/><g class="legendlines"><path class="js-line" d="M5,0h30" style="fill: none; stroke: rgb(99, 110, 250); stroke-opacity: 1; stroke-width: 2px;"/></g><g class="legendsymbols"><g class="legendpoints"/></g></g><rect class="legendtoggle" x="0" y="-9.5" width="213.625" height="19" style="fill: rgb(0, 0, 0); fill-opacity: 0;"/></g><g class="traces" transform="translate(0,33.5)" style="opacity: 1;"><text class="legendtext" text-anchor="start" x="40" y="4.680000000000001" style="font-family: 'Open Sans', verdana, arial, sans-serif; font-size: 12px; fill: rgb(42, 63, 95); fill-opacity: 1; white-space: pre;">72 x 48</text><g class="layers" style="opacity: 1;"><g class="legendfill"/><g class="legendlines"><path class="js-line" d="M5,0h30" style="fill: none; stroke: rgb(239, 85, 59); stroke-opacity: 1; stroke-width: 2px;"/></g><g class="legendsymbols"><g class="legendpoints"/></g></g><rect class="legendtoggle" x="0" y="-9.5" width="213.625" height="19" style="fill: rgb(0, 0, 0); fill-opacity: 0;"/></g><g class="traces" transform="translate(0,52.5)" style="opacity: 1;"><text class="legendtext" text-anchor="start" x="40" y="4.680000000000001" style="font-family: 'Open Sans', verdana, arial, sans-serif; font-size: 12px; fill: rgb(42, 63, 95); fill-opacity: 1; white-space: pre;">96 x 64</text><g class="layers" style="opacity: 1;"><g class="legendfill"/><g class="legendlines"><path class="js-line" d="M5,0h30" style="fill: none; stroke: rgb(0, 204, 150); stroke-opacity: 1; stroke-width: 2px;"/></g><g class="legendsymbols"><g class="legendpoints"/></g></g><rect class="legendtoggle" x="0" y="-9.5" width="213.625" height="19" style="fill: rgb(0, 0, 0); fill-opacity: 0;"/></g><g class="traces" transform="translate(0,71.5)" style="opacity: 1;"><text class="legendtext" text-anchor="start" x="40" y="4.680000000000001" style="font-family: 'Open Sans', verdana, arial, sans-serif; font-size: 12px; fill: rgb(42, 63, 95); fill-opacity: 1; white-space: pre;">144 x 96</text><g class="layers" style="opacity: 1;"><g class="legendfill"/><g class="legendlines"><path class="js-line" d="M5,0h30" style="fill: none; stroke: rgb(171, 99, 250); stroke-opacity: 1; stroke-width: 2px;"/></g><g class="legendsymbols"><g class="legendpoints"/></g></g><rect class="legendtoggle" x="0" y="-9.5" width="213.625" height="19" style="fill: rgb(0, 0, 0); fill-opacity: 0;"/></g><g class="traces" transform="translate(0,90.5)" style="opacity: 1;"><text class="legendtext" text-anchor="start" x="40" y="4.680000000000001" style="font-family: 'Open Sans', verdana, arial, sans-serif; font-size: 12px; fill: rgb(42, 63, 95); fill-opacity: 1; white-space: pre;">192 x 128</text><g class="layers" style="opacity: 1;"><g class="legendfill"/><g class="legendlines"><path class="js-line" d="M5,0h30" style="fill: none; stroke: rgb(255, 161, 90); stroke-opacity: 1; stroke-width: 2px;"/></g><g class="legendsymbols"><g class="legendpoints"/></g></g><rect class="legendtoggle" x="0" y="-9.5" width="213.625" height="19" style="fill: rgb(0, 0, 0); fill-opacity: 0;"/></g><g class="traces" transform="translate(0,109.5)" style="opacity: 1;"><text class="legendtext" text-anchor="start" x="40" y="4.680000000000001" style="font-family: 'Open Sans', verdana, arial, sans-serif; font-size: 12px; fill: rgb(42, 63, 95); fill-opacity: 1; white-space: pre;">96 x 64, inner_dt = 0.03</text><g class="layers" style="opacity: 1;"><g class="legendfill"/><g class="legendlines"><path class="js-line" d="M5,0h30" style="fill: none; stroke: rgb(25, 211, 243); stroke-opacity: 1; stroke-width: 2px;"/></g><g class="legendsymbols"><g class="legendpoints"/></g></g><rect class="legendtoggle" x="0" y="-9.5" width="213.625" height="19" style="fill: rgb(0, 0, 0); fill-opacity: 0;"/></g><g class="traces" transform="translate(0,128.5)" style="opacity: 1;"><text class="legendtext" text-anchor="start" x="40" y="4.680000000000001" style="font-family: 'Open Sans', verdana, arial, sans-serif; font-size: 12px; fill: rgb(42, 63, 95); fill-opacity: 1; white-space: pre;">96 x 64, inner_dt = 0.0005</text><g class="layers" style="opacity: 1;"><g class="legendfill"/><g class="legendlines"><path class="js-line" d="M5,0h30" style="fill: none; stroke: rgb(255, 102, 146); stroke-opacity: 1; stroke-width: 2px;"/></g><g class="legendsymbols"><g class="legendpoints"/></g></g><rect class="legendtoggle" x="0" y="-9.5" width="213.625" height="19" style="fill: rgb(0, 0, 0); fill-opacity: 0;"/></g><g class="traces" transform="translate(0,147.5)" style="opacity: 1;"><text class="legendtext" text-anchor="start" x="40" y="4.680000000000001" style="font-family: 'Open Sans', verdana, arial, sans-serif; font-size: 12px; fill: rgb(42, 63, 95); fill-opacity: 1; white-space: pre;">144 x 96, inner_dt = 0.0005</text><g class="layers" style="opacity: 1;"><g class="legendfill"/><g class="legendlines"><path class="js-line" d="M5,0h30" style="fill: none; stroke: rgb(182, 232, 128); stroke-opacity: 1; stroke-width: 2px;"/></g><g class="legendsymbols"><g class="legendpoints"/></g></g><rect class="legendtoggle" x="0" y="-9.5" width="213.625" height="19" style="fill: rgb(0, 0, 0); fill-opacity: 0;"/></g></g></g><rect class="scrollbar" rx="20" ry="3" width="0" height="0" x="0" y="0" style="fill: rgb(128, 139, 164); fill-opacity: 1;"/></g><g class="g-gtitle"/><g class="g-xtitle"/><g class="g-ytitle"/></g></svg>